<?xml version="1.0" encoding="UTF-8"?>
<svg xmlns="http://www.w3.org/2000/svg" viewBox="0 0 400 400" width="400" height="400">
  <path fill="#e15a2b" fill-rule="evenodd" d="M205.50,82.50 C205.50,126.50 205.50,126.50 216.00,117.00 C226.50,107.50 226.50,107.50 238.50,97.50 C250.50,87.50 250.50,87.50 250.50,63.00 C250.50,38.50 250.50,38.50 228.00,38.50 C205.50,38.50 205.50,38.50 205.50,82.50 Z M75.00,107.00 C50.71,114.14 34.87,125.53 23.50,144.00 C17.88,153.12 14.04,161.62 11.50,170.50 C9.72,176.75 9.50,179.17 9.50,193.00 C9.50,210.55 10.60,216.23 16.50,229.00 C23.20,243.52 30.75,252.69 44.50,263.00 C50.50,267.50 50.50,267.50 59.00,271.50 C74.56,278.82 77.81,279.50 97.50,279.50 C116.58,279.50 122.37,278.56 131.50,274.00 C141.52,268.99 140.50,265.10 140.50,308.50 C140.50,346.50 140.50,346.50 163.00,346.50 C185.50,346.50 185.50,346.50 185.50,288.00 C185.50,229.50 185.50,229.50 200.50,217.00 C215.50,204.50 215.50,204.50 228.00,193.00 C240.50,181.50 240.50,181.50 253.50,170.50 C260.65,164.45 268.07,158.15 270.00,156.50 C275.89,151.45 279.86,150.50 295.00,150.50 C307.50,150.50 307.50,150.50 314.00,153.50 C320.50,156.50 320.50,156.50 324.50,161.50 C333.87,173.22 336.50,180.11 336.50,193.00 C336.50,206.49 334.15,212.22 324.00,223.50 C319.50,228.50 319.50,228.50 313.00,231.50 C306.50,234.50 306.50,234.50 295.00,234.50 C280.18,234.50 278.80,233.98 263.50,222.50 C258.06,218.42 255.33,214.26 253.00,206.50 C251.20,200.51 251.99,200.51 244.50,206.50 C239.50,210.50 239.50,210.50 234.50,215.50 C229.50,220.50 229.50,220.50 223.00,226.00 C214.58,233.13 214.67,232.53 220.50,242.00 C224.50,248.50 224.50,248.50 230.00,253.50 C243.95,266.18 253.99,272.15 269.50,277.00 C277.34,279.45 277.83,279.50 294.50,279.50 C313.65,279.50 316.76,278.89 332.50,272.00 C340.50,268.50 340.50,268.50 346.50,264.00 C359.92,253.94 366.80,245.42 374.00,230.00 C380.17,216.77 381.50,210.23 381.50,193.00 C381.50,175.77 380.17,169.23 374.00,156.00 C364.91,136.52 360.59,130.82 347.50,121.00 C341.50,116.50 341.50,116.50 333.50,113.00 C317.60,106.05 314.77,105.50 294.50,105.50 C276.77,105.50 276.38,105.54 268.50,108.00 C255.14,112.17 252.46,113.94 233.50,131.00 C219.33,143.75 217.61,145.28 202.50,158.50 C193.70,166.20 179.30,178.80 170.50,186.50 C134.44,218.05 123.59,226.92 116.00,231.00 C109.50,234.50 109.50,234.50 97.50,234.50 C85.50,234.50 85.50,234.50 80.00,231.50 C74.50,228.50 74.50,228.50 68.00,223.50 C61.50,218.50 61.50,218.50 58.50,212.50 C55.70,206.90 55.43,206.03 54.50,199.50 C53.50,192.50 53.50,192.50 54.50,186.00 C55.48,179.60 55.55,179.40 59.00,173.00 C62.50,166.50 62.50,166.50 68.00,161.50 C73.50,156.50 73.50,156.50 79.00,153.50 C84.50,150.50 84.50,150.50 97.50,150.50 C110.50,150.50 110.50,150.50 117.00,153.50 C123.50,156.50 123.50,156.50 127.00,161.00 C131.57,166.88 135.70,173.70 138.50,180.00 C140.50,184.50 140.50,184.50 151.50,175.00 C162.50,165.50 162.50,165.50 169.00,159.00 C175.50,152.50 175.50,152.50 173.00,148.50 C165.90,137.15 161.03,130.99 154.00,124.50 C147.50,118.50 147.50,118.50 139.50,114.50 C124.54,107.02 118.54,105.59 99.50,105.00 C83.59,104.50 83.45,104.51 75.00,107.00 Z"/>
</svg>